<svg width="150" height="150" viewBox="0 0 150 150" fill="none" xmlns="http://www.w3.org/2000/svg">
<g clip-path="url(#clip0_27_4)">
<circle cx="75" cy="75" r="75" fill="#79AFFF"/>
<path d="M34.5076 21.2599C40.4659 16.9309 48.5341 16.9309 54.4924 21.2599L63.5149 27.8151C69.4732 32.1441 71.9663 39.8173 69.6905 46.8217L66.2442 57.4283C63.9683 64.4327 57.4411 69.175 50.0762 69.175H38.9238C31.5589 69.175 25.0317 64.4327 22.7558 57.4283L19.3095 46.8217C17.0337 39.8173 19.5268 32.1441 25.4851 27.8151L34.5076 21.2599Z" fill="#F2CF66"/>
<path d="M34.5076 82.2599C40.4659 77.9309 48.5341 77.9309 54.4924 82.2599L63.5149 88.8151C69.4732 93.1441 71.9663 100.817 69.6905 107.822L66.2442 118.428C63.9683 125.433 57.4411 130.175 50.0762 130.175H38.9238C31.5589 130.175 25.0317 125.433 22.7558 118.428L19.3095 107.822C17.0337 100.817 19.5268 93.1441 25.4851 88.8151L34.5076 82.2599Z" fill="#FF8EE3"/>
<path d="M95.5076 21.2599C101.466 16.9309 109.534 16.9309 115.492 21.2599L124.515 27.8151C130.473 32.1441 132.966 39.8173 130.69 46.8217L127.244 57.4283C124.968 64.4327 118.441 69.175 111.076 69.175H99.9238C92.5589 69.175 86.0317 64.4327 83.7558 57.4283L80.3095 46.8217C78.0337 39.8173 80.5268 32.1441 86.4851 27.8151L95.5076 21.2599Z" fill="#FF0000"/>
<path d="M95.5076 82.2599C101.466 77.9309 109.534 77.9309 115.492 82.2599L124.515 88.8151C130.473 93.1441 132.966 100.817 130.69 107.822L127.244 118.428C124.968 125.433 118.441 130.175 111.076 130.175H99.9238C92.5589 130.175 86.0317 125.433 83.7558 118.428L80.3095 107.822C78.0337 100.817 80.5268 93.1441 86.4851 88.8151L95.5076 82.2599Z" fill="#34BE49"/>
<g filter="url(#filter0_d_27_4)">
<path d="M65.0076 21.2599C70.9659 16.9309 79.0341 16.9309 84.9923 21.2599L123.022 48.8901C128.98 53.219 131.474 60.8923 129.198 67.8967L114.672 112.603C112.396 119.608 105.869 124.35 98.5037 124.35H51.4963C44.1315 124.35 37.6042 119.608 35.3284 112.603L20.8023 67.8967C18.5264 60.8923 21.0196 53.219 26.9779 48.8901L65.0076 21.2599Z" fill="#9EDCFF"/>
</g>
<path d="M73.545 101.735C71.2917 101.735 69.0817 101.475 66.915 100.955C64.7917 100.478 62.8417 99.6983 61.065 98.615C59.3317 97.5317 57.945 96.1233 56.905 94.39C55.865 92.7 55.345 90.62 55.345 88.15C55.345 87.11 55.5833 85.8533 56.06 84.38C56.58 82.9067 57.3383 81.4333 58.335 79.96C59.375 78.4867 60.6967 77.1867 62.3 76.06C63.9033 74.9333 65.8317 74.1533 68.085 73.72C68.215 73.6767 68.3883 73.655 68.605 73.655C69.0817 73.655 69.4283 73.7633 69.645 73.98C69.8617 74.1967 69.97 74.4567 69.97 74.76C69.97 75.4533 69.5367 75.9083 68.67 76.125C66.85 76.515 65.2467 77.2083 63.86 78.205C62.5167 79.1583 61.39 80.2633 60.48 81.52C59.6133 82.7333 58.9417 83.9467 58.465 85.16C58.0317 86.33 57.815 87.3267 57.815 88.15C57.815 90.6633 58.53 92.7433 59.96 94.39C61.39 96.0367 63.2967 97.25 65.68 98.03C68.0633 98.8533 70.685 99.265 73.545 99.265C76.405 99.265 79.135 98.94 81.735 98.29C84.335 97.64 86.6317 96.7083 88.625 95.495C90.6617 94.2817 92.265 92.8517 93.435 91.205C94.605 89.5583 95.19 87.7383 95.19 85.745C95.19 83.925 94.6483 82.4083 93.565 81.195C92.525 79.9383 91.1167 78.8333 89.34 77.88C87.6067 76.9267 85.7 75.9733 83.62 75.02C80.37 73.5467 78.0517 72.0083 76.665 70.405C75.3217 68.8017 74.65 67.2417 74.65 65.725C74.65 63.905 75.3867 62.1933 76.86 60.59C78.3333 58.9867 80.305 57.6867 82.775 56.69C85.2883 55.6933 88.04 55.195 91.03 55.195C95.1467 55.195 98.0933 55.78 99.87 56.95C101.647 58.0767 102.535 59.3983 102.535 60.915C102.535 62.5183 101.647 64.0783 99.87 65.595C98.0933 67.0683 95.7317 68 92.785 68.39H92.525C92.135 68.39 91.81 68.26 91.55 68C91.3333 67.74 91.225 67.4583 91.225 67.155C91.225 66.6783 91.5067 66.375 92.07 66.245C94.2367 65.9417 96.0567 65.2917 97.53 64.295C99.0467 63.255 99.805 62.1933 99.805 61.11C99.805 60.2 99.1333 59.3983 97.79 58.705C96.4467 58.0117 94.1933 57.665 91.03 57.665C88.2567 57.665 85.8517 58.0767 83.815 58.9C81.7783 59.7233 80.1967 60.7417 79.07 61.955C77.9867 63.125 77.445 64.3167 77.445 65.53C77.445 66.9167 77.9217 68.1083 78.875 69.105C79.8283 70.1017 80.955 70.9467 82.255 71.64C83.555 72.29 84.7033 72.8317 85.7 73.265C87.6067 74.0883 89.47 75.02 91.29 76.06C93.11 77.1 94.6267 78.3783 95.84 79.895C97.0533 81.4117 97.66 83.3617 97.66 85.745C97.66 88.345 96.9667 90.6417 95.58 92.635C94.1933 94.585 92.33 96.2317 89.99 97.575C87.65 98.9617 85.05 100.002 82.19 100.695C79.3733 101.388 76.4917 101.735 73.545 101.735Z" fill="black"/>
</g>
<defs>
<filter id="filter0_d_27_4" x="14.9691" y="18.0132" width="120.062" height="121.337" filterUnits="userSpaceOnUse" color-interpolation-filters="sRGB">
<feFlood flood-opacity="0" result="BackgroundImageFix"/>
<feColorMatrix in="SourceAlpha" type="matrix" values="0 0 0 0 0 0 0 0 0 0 0 0 0 0 0 0 0 0 127 0" result="hardAlpha"/>
<feOffset dy="10"/>
<feGaussianBlur stdDeviation="2.5"/>
<feComposite in2="hardAlpha" operator="out"/>
<feColorMatrix type="matrix" values="0 0 0 0 0 0 0 0 0 0 0 0 0 0 0 0 0 0 0.25 0"/>
<feBlend mode="normal" in2="BackgroundImageFix" result="effect1_dropShadow_27_4"/>
<feBlend mode="normal" in="SourceGraphic" in2="effect1_dropShadow_27_4" result="shape"/>
</filter>
<clipPath id="clip0_27_4">
<rect width="150" height="150" fill="white"/>
</clipPath>
</defs>
</svg>
