<svg viewBox="0 0 1000 1000" xmlns="http://www.w3.org/2000/svg"><defs><clipPath id="b"><path fill="currentColor" d="M847 641q-11 141-140 220.5T433 904q-145-37-214-157T101.5 482q-48.5-145 63-257.5t257-109.5q145.5 3 264 66.5t145.5 191Q858 500 847 641Z"/></clipPath><filter id="a" x="-50vw" y="-50vh" width="100vw" height="100vh"><feFlood flood-color="#fff" result="neutral-gray"/><feTurbulence type="fractalNoise" baseFrequency="2.5" numOctaves="100" stitchTiles="stitch" result="noise"/><feColorMatrix in="noise" type="saturate" values="0" result="destaturatedNoise"/><feComponentTransfer in="desaturatedNoise" result="theNoise"><feFuncA type="table" tableValues="0 0 0.5 0"/></feComponentTransfer><feBlend in="SourceGraphic" in2="theNoise" mode="soft-light" result="noisy-image"/></filter></defs><g filter="url(#a)" clip-path="url(#b)"><path fill="#444cf7" d="M847 641q-11 141-140 220.5T433 904q-145-37-214-157T101.5 482q-48.5-145 63-257.5t257-109.5q145.5 3 264 66.5t145.5 191Q858 500 847 641Z"/></g></svg>